<svg width="15" height="16" viewBox="0 0 15 16" fill="none" xmlns="http://www.w3.org/2000/svg">
<path d="M3.12088 13.5555C2.81532 13.5555 2.55375 13.4467 2.33615 13.2292C2.11856 13.0116 2.00977 12.75 2.00977 12.4444V4.66665C2.00977 4.3611 2.11856 4.09952 2.33615 3.88193C2.55375 3.66434 2.81532 3.55554 3.12088 3.55554H3.67643V2.44443H4.78754V3.55554H9.23199V2.44443H10.3431V3.55554H10.8987C11.2042 3.55554 11.4658 3.66434 11.6834 3.88193C11.901 4.09952 12.0098 4.3611 12.0098 4.66665V12.4444C12.0098 12.75 11.901 13.0116 11.6834 13.2292C11.4658 13.4467 11.2042 13.5555 10.8987 13.5555H3.12088ZM3.12088 12.4444H10.8987V6.88888H3.12088V12.4444ZM3.12088 5.77776H10.8987V4.66665H3.12088V5.77776ZM7.00977 9.1111C6.85236 9.1111 6.72041 9.05786 6.61393 8.95138C6.50745 8.84489 6.45421 8.71295 6.45421 8.55554C6.45421 8.39813 6.50745 8.26619 6.61393 8.15971C6.72041 8.05323 6.85236 7.99999 7.00977 7.99999C7.16717 7.99999 7.29912 8.05323 7.4056 8.15971C7.51208 8.26619 7.56532 8.39813 7.56532 8.55554C7.56532 8.71295 7.51208 8.84489 7.4056 8.95138C7.29912 9.05786 7.16717 9.1111 7.00977 9.1111ZM4.78754 9.1111C4.63014 9.1111 4.49819 9.05786 4.39171 8.95138C4.28523 8.84489 4.23199 8.71295 4.23199 8.55554C4.23199 8.39813 4.28523 8.26619 4.39171 8.15971C4.49819 8.05323 4.63014 7.99999 4.78754 7.99999C4.94495 7.99999 5.0769 8.05323 5.18338 8.15971C5.28986 8.26619 5.3431 8.39813 5.3431 8.55554C5.3431 8.71295 5.28986 8.84489 5.18338 8.95138C5.0769 9.05786 4.94495 9.1111 4.78754 9.1111ZM9.23199 9.1111C9.07458 9.1111 8.94264 9.05786 8.83615 8.95138C8.72967 8.84489 8.67643 8.71295 8.67643 8.55554C8.67643 8.39813 8.72967 8.26619 8.83615 8.15971C8.94264 8.05323 9.07458 7.99999 9.23199 7.99999C9.3894 7.99999 9.52134 8.05323 9.62782 8.15971C9.7343 8.26619 9.78754 8.39813 9.78754 8.55554C9.78754 8.71295 9.7343 8.84489 9.62782 8.95138C9.52134 9.05786 9.3894 9.1111 9.23199 9.1111ZM7.00977 11.3333C6.85236 11.3333 6.72041 11.2801 6.61393 11.1736C6.50745 11.0671 6.45421 10.9352 6.45421 10.7778C6.45421 10.6204 6.50745 10.4884 6.61393 10.3819C6.72041 10.2754 6.85236 10.2222 7.00977 10.2222C7.16717 10.2222 7.29912 10.2754 7.4056 10.3819C7.51208 10.4884 7.56532 10.6204 7.56532 10.7778C7.56532 10.9352 7.51208 11.0671 7.4056 11.1736C7.29912 11.2801 7.16717 11.3333 7.00977 11.3333ZM4.78754 11.3333C4.63014 11.3333 4.49819 11.2801 4.39171 11.1736C4.28523 11.0671 4.23199 10.9352 4.23199 10.7778C4.23199 10.6204 4.28523 10.4884 4.39171 10.3819C4.49819 10.2754 4.63014 10.2222 4.78754 10.2222C4.94495 10.2222 5.0769 10.2754 5.18338 10.3819C5.28986 10.4884 5.3431 10.6204 5.3431 10.7778C5.3431 10.9352 5.28986 11.0671 5.18338 11.1736C5.0769 11.2801 4.94495 11.3333 4.78754 11.3333ZM9.23199 11.3333C9.07458 11.3333 8.94264 11.2801 8.83615 11.1736C8.72967 11.0671 8.67643 10.9352 8.67643 10.7778C8.67643 10.6204 8.72967 10.4884 8.83615 10.3819C8.94264 10.2754 9.07458 10.2222 9.23199 10.2222C9.3894 10.2222 9.52134 10.2754 9.62782 10.3819C9.7343 10.4884 9.78754 10.6204 9.78754 10.7778C9.78754 10.9352 9.7343 11.0671 9.62782 11.1736C9.52134 11.2801 9.3894 11.3333 9.23199 11.3333Z" fill="currentColor"/>
</svg>
