<svg width="25" height="28" viewBox="0 0 25 28" fill="none" xmlns="http://www.w3.org/2000/svg">
<path d="M10.6447 18.4645L17.4961 11.6132L16.1355 10.2527L10.6447 15.7434L7.87506 12.9738L6.51452 14.3343L10.6447 18.4645ZM12.0053 23.7123C10.6609 23.7123 9.39757 23.4572 8.2152 22.947C7.03282 22.4368 6.00431 21.7444 5.12968 20.8698C4.25504 19.9951 3.56262 18.9666 3.05242 17.7843C2.54221 16.6019 2.28711 15.3385 2.28711 13.9942C2.28711 12.6498 2.54221 11.3865 3.05242 10.2041C3.56262 9.0217 4.25504 7.99319 5.12968 7.11856C6.00431 6.24392 7.03282 5.5515 8.2152 5.0413C9.39757 4.53109 10.6609 4.27599 12.0053 4.27599C13.3496 4.27599 14.613 4.53109 15.7954 5.0413C16.9778 5.5515 18.0063 6.24392 18.8809 7.11856C19.7555 7.99319 20.4479 9.0217 20.9582 10.2041C21.4684 11.3865 21.7235 12.6498 21.7235 13.9942C21.7235 15.3385 21.4684 16.6019 20.9582 17.7843C20.4479 18.9666 19.7555 19.9951 18.8809 20.8698C18.0063 21.7444 16.9778 22.4368 15.7954 22.947C14.613 23.4572 13.3496 23.7123 12.0053 23.7123ZM12.0053 21.7687C14.1757 21.7687 16.014 21.0155 17.5203 19.5092C19.0267 18.0029 19.7798 16.1646 19.7798 13.9942C19.7798 11.8238 19.0267 9.98542 17.5203 8.4791C16.014 6.97278 14.1757 6.21963 12.0053 6.21963C9.83489 6.21963 7.99654 6.97278 6.49022 8.4791C4.9839 9.98542 4.23074 11.8238 4.23074 13.9942C4.23074 16.1646 4.9839 18.0029 6.49022 19.5092C7.99654 21.0155 9.83489 21.7687 12.0053 21.7687Z" fill="currentColor"/>
</svg>
