<svg width="15" height="16" viewBox="0 0 15 16" fill="none" xmlns="http://www.w3.org/2000/svg">
<path d="M5.3431 2.99999V1.88888H8.67643V2.99999H5.3431ZM6.45421 9.1111H7.56532V5.77776H6.45421V9.1111ZM7.00977 13.5555C6.32458 13.5555 5.67875 13.4236 5.07227 13.1597C4.46578 12.8958 3.93569 12.537 3.48199 12.0833C3.02828 11.6296 2.66949 11.0995 2.4056 10.493C2.14171 9.88656 2.00977 9.24073 2.00977 8.55554C2.00977 7.87036 2.14171 7.22452 2.4056 6.61804C2.66949 6.01156 3.02828 5.48147 3.48199 5.02776C3.93569 4.57406 4.46578 4.21526 5.07227 3.95138C5.67875 3.68749 6.32458 3.55554 7.00977 3.55554C7.58384 3.55554 8.13477 3.64813 8.66254 3.83332C9.19032 4.01851 9.68569 4.28702 10.1487 4.63888L10.9264 3.8611L11.7042 4.63888L10.9264 5.41665C11.2783 5.87962 11.5468 6.37499 11.732 6.90276C11.9172 7.43054 12.0098 7.98147 12.0098 8.55554C12.0098 9.24073 11.8778 9.88656 11.6139 10.493C11.35 11.0995 10.9912 11.6296 10.5375 12.0833C10.0838 12.537 9.55375 12.8958 8.94727 13.1597C8.34078 13.4236 7.69495 13.5555 7.00977 13.5555ZM7.00977 12.4444C8.08384 12.4444 9.00051 12.0648 9.75977 11.3055C10.519 10.5463 10.8987 9.62962 10.8987 8.55554C10.8987 7.48147 10.519 6.5648 9.75977 5.80554C9.00051 5.04628 8.08384 4.66665 7.00977 4.66665C5.93569 4.66665 5.01902 5.04628 4.25977 5.80554C3.50051 6.5648 3.12088 7.48147 3.12088 8.55554C3.12088 9.62962 3.50051 10.5463 4.25977 11.3055C5.01902 12.0648 5.93569 12.4444 7.00977 12.4444Z" fill="currentColor"/>
</svg>
