<svg width="25" height="28" viewBox="0 0 25 28" fill="none" xmlns="http://www.w3.org/2000/svg">
<path d="M7.63477 8.16667C7.22967 8.16667 6.88534 8.30845 6.60178 8.59202C6.31821 8.87558 6.17643 9.21991 6.17643 9.62501C6.17643 10.0301 6.31821 10.3744 6.60178 10.658C6.88534 10.9416 7.22967 11.0833 7.63477 11.0833C8.03986 11.0833 8.38419 10.9416 8.66775 10.658C8.95132 10.3744 9.0931 10.0301 9.0931 9.62501C9.0931 9.21991 8.95132 8.87558 8.66775 8.59202C8.38419 8.30845 8.03986 8.16667 7.63477 8.16667ZM7.63477 17.8889C7.22967 17.8889 6.88534 18.0307 6.60178 18.3142C6.31821 18.5978 6.17643 18.9421 6.17643 19.3472C6.17643 19.7523 6.31821 20.0966 6.60178 20.3802C6.88534 20.6638 7.22967 20.8056 7.63477 20.8056C8.03986 20.8056 8.38419 20.6638 8.66775 20.3802C8.95132 20.0966 9.0931 19.7523 9.0931 19.3472C9.0931 18.9421 8.95132 18.5978 8.66775 18.3142C8.38419 18.0307 8.03986 17.8889 7.63477 17.8889ZM4.23199 5.25001H19.7875C20.063 5.25001 20.2939 5.34318 20.4803 5.52952C20.6666 5.71586 20.7598 5.94676 20.7598 6.22223V13.0278C20.7598 13.3032 20.6666 13.5341 20.4803 13.7205C20.2939 13.9068 20.063 14 19.7875 14H4.23199C3.95652 14 3.72562 13.9068 3.53928 13.7205C3.35294 13.5341 3.25977 13.3032 3.25977 13.0278V6.22223C3.25977 5.94676 3.35294 5.71586 3.53928 5.52952C3.72562 5.34318 3.95652 5.25001 4.23199 5.25001ZM5.20421 7.19445V12.0556H18.8153V7.19445H5.20421ZM4.23199 14.9722H19.7875C20.063 14.9722 20.2939 15.0654 20.4803 15.2517C20.6666 15.4381 20.7598 15.669 20.7598 15.9445V22.75C20.7598 23.0255 20.6666 23.2564 20.4803 23.4427C20.2939 23.6291 20.063 23.7222 19.7875 23.7222H4.23199C3.95652 23.7222 3.72562 23.6291 3.53928 23.4427C3.35294 23.2564 3.25977 23.0255 3.25977 22.75V15.9445C3.25977 15.669 3.35294 15.4381 3.53928 15.2517C3.72562 15.0654 3.95652 14.9722 4.23199 14.9722ZM5.20421 16.9167V21.7778H18.8153V16.9167H5.20421Z" fill="currentColor"/>
</svg>
