<svg viewBox="0 0 24 24" fill="none" xmlns="http://www.w3.org/2000/svg">
<path d="M8 5.68421C7.62963 5.68421 7.31481 5.81469 7.05556 6.07566C6.7963 6.33662 6.66667 6.65351 6.66667 7.02632C6.66667 7.39912 6.7963 7.71601 7.05556 7.97697C7.31481 8.23794 7.62963 8.36842 8 8.36842C8.37037 8.36842 8.68519 8.23794 8.94444 7.97697C9.2037 7.71601 9.33333 7.39912 9.33333 7.02632C9.33333 6.65351 9.2037 6.33662 8.94444 6.07566C8.68519 5.81469 8.37037 5.68421 8 5.68421ZM8 14.6316C7.62963 14.6316 7.31481 14.7621 7.05556 15.023C6.7963 15.284 6.66667 15.6009 6.66667 15.9737C6.66667 16.3465 6.7963 16.6634 7.05556 16.9243C7.31481 17.1853 7.62963 17.3158 8 17.3158C8.37037 17.3158 8.68519 17.1853 8.94444 16.9243C9.2037 16.6634 9.33333 16.3465 9.33333 15.9737C9.33333 15.6009 9.2037 15.284 8.94444 15.023C8.68519 14.7621 8.37037 14.6316 8 14.6316ZM4.88889 3H19.1111C19.363 3 19.5741 3.08575 19.7444 3.25724C19.9148 3.42873 20 3.64123 20 3.89474V10.1579C20 10.4114 19.9148 10.6239 19.7444 10.7954C19.5741 10.9669 19.363 11.0526 19.1111 11.0526H4.88889C4.63704 11.0526 4.42593 10.9669 4.25556 10.7954C4.08519 10.6239 4 10.4114 4 10.1579V3.89474C4 3.64123 4.08519 3.42873 4.25556 3.25724C4.42593 3.08575 4.63704 3 4.88889 3ZM5.77778 4.78947V9.26316H18.2222V4.78947H5.77778ZM4.88889 11.9474H19.1111C19.363 11.9474 19.5741 12.0331 19.7444 12.2046C19.9148 12.3761 20 12.5886 20 12.8421V19.1053C20 19.3588 19.9148 19.5713 19.7444 19.7428C19.5741 19.9143 19.363 20 19.1111 20H4.88889C4.63704 20 4.42593 19.9143 4.25556 19.7428C4.08519 19.5713 4 19.3588 4 19.1053V12.8421C4 12.5886 4.08519 12.3761 4.25556 12.2046C4.42593 12.0331 4.63704 11.9474 4.88889 11.9474ZM5.77778 13.7368V18.2105H18.2222V13.7368H5.77778Z" fill="black"/>
</svg>
