<svg width="17" height="17" viewBox="0 0 17 17" fill="none" xmlns="http://www.w3.org/2000/svg">
<path d="M8.33333 12.5C8.56945 12.5 8.76736 12.4201 8.92708 12.2604C9.08681 12.1007 9.16667 11.9027 9.16667 11.6666C9.16667 11.4305 9.08681 11.2326 8.92708 11.0729C8.76736 10.9132 8.56945 10.8333 8.33333 10.8333C8.09722 10.8333 7.89931 10.9132 7.73958 11.0729C7.57986 11.2326 7.5 11.4305 7.5 11.6666C7.5 11.9027 7.57986 12.1007 7.73958 12.2604C7.89931 12.4201 8.09722 12.5 8.33333 12.5ZM7.5 9.16663H9.16667V4.16662H7.5V9.16663ZM8.33333 16.6666C7.18056 16.6666 6.09722 16.4479 5.08333 16.0104C4.06945 15.5729 3.1875 14.9791 2.4375 14.2291C1.6875 13.4791 1.09375 12.5972 0.65625 11.5833C0.21875 10.5694 0 9.48607 0 8.33329C0 7.18051 0.21875 6.09718 0.65625 5.08329C1.09375 4.0694 1.6875 3.18746 2.4375 2.43746C3.1875 1.68746 4.06945 1.09371 5.08333 0.656208C6.09722 0.218708 7.18056 -4.19617e-05 8.33333 -4.19617e-05C9.48611 -4.19617e-05 10.5694 0.218708 11.5833 0.656208C12.5972 1.09371 13.4792 1.68746 14.2292 2.43746C14.9792 3.18746 15.5729 4.0694 16.0104 5.08329C16.4479 6.09718 16.6667 7.18051 16.6667 8.33329C16.6667 9.48607 16.4479 10.5694 16.0104 11.5833C15.5729 12.5972 14.9792 13.4791 14.2292 14.2291C13.4792 14.9791 12.5972 15.5729 11.5833 16.0104C10.5694 16.4479 9.48611 16.6666 8.33333 16.6666ZM8.33333 15C10.1944 15 11.7708 14.3541 13.0625 13.0625C14.3542 11.7708 15 10.1944 15 8.33329C15 6.47218 14.3542 4.89579 13.0625 3.60412C11.7708 2.31246 10.1944 1.66662 8.33333 1.66662C6.47222 1.66662 4.89583 2.31246 3.60417 3.60412C2.3125 4.89579 1.66667 6.47218 1.66667 8.33329C1.66667 10.1944 2.3125 11.7708 3.60417 13.0625C4.89583 14.3541 6.47222 15 8.33333 15Z" fill="currentColor"/>
</svg>
