<svg width="25" height="28" viewBox="0 0 25 28" fill="none" xmlns="http://www.w3.org/2000/svg">
<path d="M6.1741 15.9378C6.1741 16.78 6.34417 17.5777 6.68431 18.3309C7.02444 19.0841 7.51035 19.7441 8.14203 20.311C8.12584 20.23 8.11774 20.1571 8.11774 20.0923C8.11774 20.0275 8.11774 19.9546 8.11774 19.8737C8.11774 19.3554 8.21492 18.8695 8.40928 18.4159C8.60365 17.9624 8.88709 17.5494 9.25962 17.1769L12.005 14.4801L14.7504 17.1769C15.1229 17.5494 15.4064 17.9624 15.6007 18.4159C15.7951 18.8695 15.8923 19.3554 15.8923 19.8737C15.8923 19.9546 15.8923 20.0275 15.8923 20.0923C15.8923 20.1571 15.8842 20.23 15.868 20.311C16.4997 19.7441 16.9856 19.0841 17.3257 18.3309C17.6658 17.5777 17.8359 16.78 17.8359 15.9378C17.8359 15.128 17.6861 14.3626 17.3864 13.6419C17.0868 12.9211 16.6535 12.2773 16.0866 11.7104C15.7627 11.921 15.4226 12.0789 15.0662 12.1842C14.7099 12.2894 14.3455 12.3421 13.9729 12.3421C12.9687 12.3421 12.0981 12.01 11.3612 11.346C10.6242 10.6819 10.199 9.86394 10.0857 8.89212C9.45399 9.42662 8.89519 9.98137 8.40928 10.5564C7.92338 11.1314 7.5144 11.7144 7.18236 12.3056C6.85033 12.8968 6.59927 13.5002 6.42921 14.1156C6.25914 14.7311 6.1741 15.3385 6.1741 15.9378ZM12.005 17.2012L10.6202 18.5617C10.442 18.7399 10.3043 18.9423 10.2071 19.1691C10.11 19.3959 10.0614 19.6307 10.0614 19.8737C10.0614 20.392 10.2517 20.8374 10.6323 21.2099C11.0129 21.5824 11.4705 21.7687 12.005 21.7687C12.5395 21.7687 12.9971 21.5824 13.3777 21.2099C13.7583 20.8374 13.9486 20.392 13.9486 19.8737C13.9486 19.6145 13.9001 19.3756 13.8029 19.1569C13.7057 18.9383 13.568 18.7399 13.3898 18.5617L12.005 17.2012ZM12.005 5.24781V8.45481C12.005 9.0055 12.1953 9.46712 12.576 9.83965C12.9566 10.2122 13.4222 10.3984 13.9729 10.3984C14.2645 10.3984 14.5358 10.3377 14.7868 10.2162C15.0379 10.0947 15.2606 9.91253 15.455 9.66958L15.8923 9.13508C17.0909 9.81535 18.0384 10.7629 18.7348 11.9776C19.4313 13.1924 19.7795 14.5125 19.7795 15.9378C19.7795 18.1082 19.0264 19.9465 17.5201 21.4529C16.0138 22.9592 14.1754 23.7123 12.005 23.7123C9.83462 23.7123 7.99626 22.9592 6.48994 21.4529C4.98363 19.9465 4.23047 18.1082 4.23047 15.9378C4.23047 13.8484 4.93099 11.8643 6.33202 9.98542C7.73306 8.10657 9.62406 6.52737 12.005 5.24781Z" fill="currentColor"/>
</svg>
