<svg viewBox="0 0 20 20" fill="none" xmlns="http://www.w3.org/2000/svg">
<path d="M10.4 9.1V11.8333H16.9334C16.7334 13.3667 16.2225 14.4892 15.4442 15.2775C14.4884 16.2333 13 17.2775 10.4 17.2775C6.37753 17.2775 3.23336 14.0333 3.23336 10.0108C3.23336 5.98833 6.37753 2.74417 10.4 2.74417C12.5667 2.74417 14.1559 3.6 15.3225 4.7L17.245 2.7775C15.6225 1.2 13.4442 0 10.4 0C4.88919 0 0.255859 4.48917 0.255859 10C0.255859 15.5108 4.88919 20 10.4 20C13.3775 20 15.6225 19.0225 17.3775 17.2C19.1775 15.4 19.7442 12.8558 19.7442 10.8108C19.7442 10.1775 19.7 9.58833 19.6 9.1H10.4Z" fill="currentColor"/>
</svg>
