<svg width="25" height="28" viewBox="0 0 25 28" fill="none" xmlns="http://www.w3.org/2000/svg">
<path d="M6.88889 18.6111H8.83333V13.75H6.88889V18.6111ZM14.6667 18.6111H16.6111V8.88889H14.6667V18.6111ZM10.7778 18.6111H12.7222V15.6944H10.7778V18.6111ZM10.7778 13.75H12.7222V11.8056H10.7778V13.75ZM4.94444 22.5C4.40972 22.5 3.95197 22.3096 3.57118 21.9288C3.19039 21.548 3 21.0903 3 20.5556V6.94444C3 6.40972 3.19039 5.95197 3.57118 5.57118C3.95197 5.19039 4.40972 5 4.94444 5H18.5556C19.0903 5 19.548 5.19039 19.9288 5.57118C20.3096 5.95197 20.5 6.40972 20.5 6.94444V20.5556C20.5 21.0903 20.3096 21.548 19.9288 21.9288C19.548 22.3096 19.0903 22.5 18.5556 22.5H4.94444ZM4.94444 20.5556H18.5556V6.94444H4.94444V20.5556Z" fill="currentColor"/>
</svg>
