<svg width="25" height="28" viewBox="0 0 25 28" fill="none" xmlns="http://www.w3.org/2000/svg">
<path d="M13.9548 16.9167C14.2302 16.9167 14.4692 16.8154 14.6718 16.6129C14.8743 16.4103 14.9756 16.1713 14.9756 15.8958C14.9756 15.6204 14.8743 15.3814 14.6718 15.1788C14.4692 14.9763 14.2302 14.875 13.9548 14.875C13.6793 14.875 13.4403 14.9763 13.2377 15.1788C13.0352 15.3814 12.9339 15.6204 12.9339 15.8958C12.9339 16.1713 13.0352 16.4103 13.2377 16.6129C13.4403 16.8154 13.6793 16.9167 13.9548 16.9167ZM13.2256 13.8056H14.6839C14.6839 13.3357 14.7325 12.9913 14.8298 12.7726C14.927 12.5538 15.1538 12.2662 15.5103 11.9097C15.9964 11.4236 16.3205 11.0307 16.4825 10.7309C16.6446 10.4311 16.7256 10.0787 16.7256 9.67362C16.7256 8.94445 16.4704 8.34896 15.96 7.88716C15.4495 7.42535 14.7811 7.19445 13.9548 7.19445C13.2904 7.19445 12.7111 7.38079 12.2169 7.75348C11.7227 8.12616 11.3784 8.62038 11.1839 9.23612L12.4964 9.77084C12.6423 9.36575 12.8407 9.06193 13.0919 8.85938C13.3431 8.65684 13.6307 8.55556 13.9548 8.55556C14.3436 8.55556 14.6596 8.66494 14.9027 8.88369C15.1457 9.10244 15.2673 9.39815 15.2673 9.77084C15.2673 9.99769 15.2024 10.2124 15.0728 10.4149C14.9432 10.6175 14.7163 10.8727 14.3923 11.1806C13.8575 11.6505 13.5294 12.0191 13.4079 12.2865C13.2864 12.5538 13.2256 13.0602 13.2256 13.8056ZM8.12142 19.8333C7.5867 19.8333 7.12894 19.6429 6.74816 19.2622C6.36737 18.8814 6.17697 18.4236 6.17697 17.8889V6.22223C6.17697 5.68751 6.36737 5.22975 6.74816 4.84896C7.12894 4.46818 7.5867 4.27778 8.12142 4.27778H19.7881C20.3228 4.27778 20.7806 4.46818 21.1614 4.84896C21.5421 5.22975 21.7325 5.68751 21.7325 6.22223V17.8889C21.7325 18.4236 21.5421 18.8814 21.1614 19.2622C20.7806 19.6429 20.3228 19.8333 19.7881 19.8333H8.12142ZM8.12142 17.8889H19.7881V6.22223H8.12142V17.8889ZM4.23253 23.7222C3.69781 23.7222 3.24005 23.5318 2.85927 23.151C2.47848 22.7703 2.28809 22.3125 2.28809 21.7778V8.16667H4.23253V21.7778H17.8436V23.7222H4.23253Z" fill="currentColor"/>
</svg>
