<svg viewBox="0 0 24 24" fill="none" xmlns="http://www.w3.org/2000/svg">
<path d="M13.9431 14.9143C14.2183 14.9143 14.4571 14.8131 14.6595 14.6107C14.8619 14.4083 14.9631 14.1695 14.9631 13.8943C14.9631 13.619 14.8619 13.3802 14.6595 13.1779C14.4571 12.9755 14.2183 12.8743 13.9431 12.8743C13.6679 12.8743 13.429 12.9755 13.2267 13.1779C13.0243 13.3802 12.9231 13.619 12.9231 13.8943C12.9231 14.1695 13.0243 14.4083 13.2267 14.6107C13.429 14.8131 13.6679 14.9143 13.9431 14.9143ZM13.2145 11.8057H14.6716C14.6716 11.3362 14.7202 10.9922 14.8174 10.7736C14.9145 10.555 15.1412 10.2677 15.4973 9.91148C15.9831 9.42577 16.3069 9.03316 16.4688 8.73364C16.6307 8.43412 16.7116 8.08198 16.7116 7.67723C16.7116 6.94867 16.4566 6.35368 15.9466 5.89226C15.4366 5.43084 14.7688 5.20013 13.9431 5.20013C13.2793 5.20013 12.7005 5.38631 12.2067 5.75869C11.7129 6.13106 11.3688 6.62487 11.1746 7.24009L12.486 7.77437C12.6317 7.36961 12.83 7.06605 13.081 6.86367C13.3319 6.66129 13.6193 6.5601 13.9431 6.5601C14.3316 6.5601 14.6474 6.66939 14.8902 6.88796C15.1331 7.10652 15.2545 7.402 15.2545 7.77437C15.2545 8.00103 15.1897 8.21555 15.0602 8.41793C14.9307 8.62031 14.704 8.8753 14.3802 9.18292C13.8459 9.65243 13.5181 10.0208 13.3967 10.2879C13.2752 10.555 13.2145 11.061 13.2145 11.8057ZM8.11461 17.8285C7.58033 17.8285 7.12296 17.6383 6.74249 17.2578C6.36202 16.8773 6.17178 16.4199 6.17178 15.8857V4.22871C6.17178 3.69444 6.36202 3.23706 6.74249 2.85659C7.12296 2.47612 7.58033 2.28589 8.11461 2.28589H19.7716C20.3058 2.28589 20.7632 2.47612 21.1437 2.85659C21.5242 3.23706 21.7144 3.69444 21.7144 4.22871V15.8857C21.7144 16.4199 21.5242 16.8773 21.1437 17.2578C20.7632 17.6383 20.3058 17.8285 19.7716 17.8285H8.11461ZM8.11461 15.8857H19.7716V4.22871H8.11461V15.8857ZM4.22896 21.7141C3.69468 21.7141 3.23731 21.5239 2.85684 21.1434C2.47637 20.763 2.28613 20.3056 2.28613 19.7713V6.17154H4.22896V19.7713H17.8287V21.7141H4.22896Z" fill="currentColor"/>
</svg>
