<svg width="20" height="24" viewBox="0 0 20 24" fill="none" xmlns="http://www.w3.org/2000/svg">
<path d="M13.4163 13.0833L12.208 11.875C12.333 11.2222 12.1455 10.6111 11.6455 10.0416C11.1455 9.4722 10.4997 9.24998 9.70801 9.37498L8.49967 8.16665C8.73579 8.05553 8.97537 7.9722 9.21842 7.91665C9.46148 7.86109 9.7219 7.83331 9.99967 7.83331C11.0413 7.83331 11.9268 8.1979 12.6559 8.92706C13.3851 9.65623 13.7497 10.5416 13.7497 11.5833C13.7497 11.8611 13.7219 12.1215 13.6663 12.3646C13.6108 12.6076 13.5275 12.8472 13.4163 13.0833ZM16.083 15.7083L14.8747 14.5416C15.4025 14.1389 15.8712 13.6979 16.2809 13.2187C16.6906 12.7396 17.0413 12.1944 17.333 11.5833C16.6386 10.1805 15.642 9.06595 14.3434 8.23956C13.0448 7.41317 11.5969 6.99998 9.99967 6.99998C9.5969 6.99998 9.20106 7.02776 8.81217 7.08331C8.42329 7.13887 8.04134 7.2222 7.66634 7.33331L6.37467 6.04165C6.94412 5.80553 7.52745 5.62845 8.12467 5.5104C8.7219 5.39234 9.3469 5.33331 9.99967 5.33331C12.0969 5.33331 13.965 5.91317 15.6038 7.0729C17.2427 8.23262 18.4302 9.73609 19.1663 11.5833C18.8469 12.4028 18.4268 13.1632 17.9059 13.8646C17.3851 14.566 16.7775 15.1805 16.083 15.7083ZM16.4997 20.8333L12.9997 17.375C12.5136 17.5278 12.024 17.6423 11.5309 17.7187C11.0379 17.7951 10.5275 17.8333 9.99967 17.8333C7.90245 17.8333 6.0344 17.2535 4.39551 16.0937C2.75662 14.934 1.56912 13.4305 0.833008 11.5833C1.12467 10.8472 1.49273 10.1632 1.93717 9.53123C2.38162 8.89929 2.88856 8.33331 3.45801 7.83331L1.16634 5.49998L2.33301 4.33331L17.6663 19.6666L16.4997 20.8333ZM4.62467 8.99998C4.2219 9.36109 3.85384 9.75692 3.52051 10.1875C3.18717 10.618 2.90245 11.0833 2.66634 11.5833C3.36079 12.9861 4.35731 14.1007 5.65592 14.9271C6.95454 15.7535 8.40245 16.1666 9.99967 16.1666C10.2775 16.1666 10.5483 16.1493 10.8122 16.1146C11.0761 16.0798 11.3469 16.0416 11.6247 16L10.8747 15.2083C10.7219 15.25 10.5761 15.2812 10.4372 15.3021C10.2983 15.3229 10.1525 15.3333 9.99967 15.3333C8.95801 15.3333 8.07259 14.9687 7.34342 14.2396C6.61426 13.5104 6.24967 12.625 6.24967 11.5833C6.24967 11.4305 6.26009 11.2847 6.28092 11.1458C6.30176 11.0069 6.33301 10.8611 6.37467 10.7083L4.62467 8.99998Z" fill="currentColor"/>
</svg>
