<svg width="20" height="24" viewBox="0 0 20 24" fill="none" xmlns="http://www.w3.org/2000/svg">
<path d="M5.83301 13.6667C5.37467 13.6667 4.98231 13.5035 4.65592 13.1771C4.32954 12.8507 4.16634 12.4583 4.16634 12C4.16634 11.5417 4.32954 11.1493 4.65592 10.8229C4.98231 10.4965 5.37467 10.3333 5.83301 10.3333C6.29134 10.3333 6.6837 10.4965 7.01009 10.8229C7.33648 11.1493 7.49967 11.5417 7.49967 12C7.49967 12.4583 7.33648 12.8507 7.01009 13.1771C6.6837 13.5035 6.29134 13.6667 5.83301 13.6667ZM5.83301 17C4.44412 17 3.26356 16.5139 2.29134 15.5417C1.31912 14.5694 0.833008 13.3889 0.833008 12C0.833008 10.6111 1.31912 9.43056 2.29134 8.45833C3.26356 7.48611 4.44412 7 5.83301 7C6.76356 7 7.60731 7.22917 8.36426 7.6875C9.1212 8.14583 9.7219 8.75 10.1663 9.5H17.4997L19.9997 12L16.2497 15.75L14.583 14.5L12.9163 15.75L11.1455 14.5H10.1663C9.7219 15.25 9.1212 15.8542 8.36426 16.3125C7.60731 16.7708 6.76356 17 5.83301 17ZM5.83301 15.3333C6.61079 15.3333 7.29481 15.0972 7.88509 14.625C8.47537 14.1528 8.86773 13.5556 9.06217 12.8333H11.6663L12.8747 13.6875L14.583 12.4167L16.0622 13.5625L17.6247 12L16.7913 11.1667H9.06217C8.86773 10.4444 8.47537 9.84722 7.88509 9.375C7.29481 8.90278 6.61079 8.66667 5.83301 8.66667C4.91634 8.66667 4.13162 8.99306 3.47884 9.64583C2.82606 10.2986 2.49967 11.0833 2.49967 12C2.49967 12.9167 2.82606 13.7014 3.47884 14.3542C4.13162 15.0069 4.91634 15.3333 5.83301 15.3333Z" fill="currentColor"/>
</svg>
