<svg width="25" height="28" viewBox="0 0 25 28" fill="none" xmlns="http://www.w3.org/2000/svg">
<path d="M17.8436 22.75H7.1492V10.1111L13.9548 3.30556L15.17 4.52083C15.2835 4.63426 15.3766 4.78819 15.4495 4.98264C15.5225 5.17708 15.5589 5.36343 15.5589 5.54167V5.88194L14.4895 10.1111H20.7603C21.2788 10.1111 21.7325 10.3056 22.1214 10.6944C22.5103 11.0833 22.7048 11.537 22.7048 12.0556V14C22.7048 14.1134 22.6886 14.235 22.6561 14.3646C22.6237 14.4942 22.5913 14.6157 22.5589 14.7292L19.6423 21.5833C19.4964 21.9074 19.2534 22.1829 18.9131 22.4097C18.5728 22.6366 18.2163 22.75 17.8436 22.75ZM9.09364 20.8056H17.8436L20.7603 14V12.0556H12.0103L13.3228 6.70833L9.09364 10.9375V20.8056ZM9.09364 10.9375V12.0556V14V20.8056V10.9375ZM7.1492 10.1111V12.0556H4.23253V20.8056H7.1492V22.75H2.28809V10.1111H7.1492Z" fill="currentColor"/>
</svg>
