<svg width="20" height="24" viewBox="0 0 20 24" fill="none" xmlns="http://www.w3.org/2000/svg">
<path d="M4.99967 20.3333C4.54134 20.3333 4.14898 20.1701 3.82259 19.8437C3.4962 19.5173 3.33301 19.125 3.33301 18.6666V10.3333C3.33301 9.87498 3.4962 9.48262 3.82259 9.15623C4.14898 8.82984 4.54134 8.66665 4.99967 8.66665H5.83301V6.99998C5.83301 5.8472 6.23926 4.86456 7.05176 4.05206C7.86426 3.23956 8.8469 2.83331 9.99967 2.83331C11.1525 2.83331 12.1351 3.23956 12.9476 4.05206C13.7601 4.86456 14.1663 5.8472 14.1663 6.99998V8.66665H14.9997C15.458 8.66665 15.8504 8.82984 16.1768 9.15623C16.5031 9.48262 16.6663 9.87498 16.6663 10.3333V18.6666C16.6663 19.125 16.5031 19.5173 16.1768 19.8437C15.8504 20.1701 15.458 20.3333 14.9997 20.3333H4.99967ZM4.99967 18.6666H14.9997V10.3333H4.99967V18.6666ZM9.99967 16.1666C10.458 16.1666 10.8504 16.0035 11.1768 15.6771C11.5031 15.3507 11.6663 14.9583 11.6663 14.5C11.6663 14.0416 11.5031 13.6493 11.1768 13.3229C10.8504 12.9965 10.458 12.8333 9.99967 12.8333C9.54134 12.8333 9.14898 12.9965 8.82259 13.3229C8.4962 13.6493 8.33301 14.0416 8.33301 14.5C8.33301 14.9583 8.4962 15.3507 8.82259 15.6771C9.14898 16.0035 9.54134 16.1666 9.99967 16.1666ZM7.49967 8.66665H12.4997V6.99998C12.4997 6.30553 12.2566 5.71526 11.7705 5.22915C11.2844 4.74303 10.6941 4.49998 9.99967 4.49998C9.30523 4.49998 8.71495 4.74303 8.22884 5.22915C7.74273 5.71526 7.49967 6.30553 7.49967 6.99998V8.66665Z" fill="currentColor"/>
</svg>
