<svg width="20" height="24" viewBox="0 0 20 24" fill="none" xmlns="http://www.w3.org/2000/svg">
<path d="M3.33366 18.6667C2.87533 18.6667 2.48296 18.5035 2.15658 18.1771C1.83019 17.8507 1.66699 17.4584 1.66699 17V7.00002C1.66699 6.54169 1.83019 6.14933 2.15658 5.82294C2.48296 5.49655 2.87533 5.33335 3.33366 5.33335H16.667C17.1253 5.33335 17.5177 5.49655 17.8441 5.82294C18.1705 6.14933 18.3337 6.54169 18.3337 7.00002V17C18.3337 17.4584 18.1705 17.8507 17.8441 18.1771C17.5177 18.5035 17.1253 18.6667 16.667 18.6667H3.33366ZM10.0003 12.8334L3.33366 8.66669V17H16.667V8.66669L10.0003 12.8334ZM10.0003 11.1667L16.667 7.00002H3.33366L10.0003 11.1667Z" fill="currentColor"/>
</svg>
