<svg width="25" height="28" viewBox="0 0 25 28" fill="none" xmlns="http://www.w3.org/2000/svg">
<path d="M12.0102 14C10.9408 14 10.0252 13.6192 9.26367 12.8576C8.5021 12.0961 8.12131 11.1805 8.12131 10.1111C8.12131 9.04166 8.5021 8.12615 9.26367 7.36458C10.0252 6.603 10.9408 6.22222 12.0102 6.22222C13.0796 6.22222 13.9952 6.603 14.7567 7.36458C15.5183 8.12615 15.8991 9.04166 15.8991 10.1111C15.8991 11.1805 15.5183 12.0961 14.7567 12.8576C13.9952 13.6192 13.0796 14 12.0102 14ZM4.23242 21.7778V19.0555C4.23242 18.5046 4.3742 17.9983 4.65777 17.5365C4.94133 17.0746 5.31807 16.7222 5.78798 16.4792C6.79261 15.9768 7.81344 15.6001 8.85048 15.349C9.88751 15.0978 10.9408 14.9722 12.0102 14.9722C13.0796 14.9722 14.1329 15.0978 15.1699 15.349C16.207 15.6001 17.2278 15.9768 18.2324 16.4792C18.7023 16.7222 19.0791 17.0746 19.3626 17.5365C19.6462 17.9983 19.788 18.5046 19.788 19.0555V21.7778H4.23242ZM6.17687 19.8333H17.8435V19.0555C17.8435 18.8773 17.799 18.7153 17.7099 18.5694C17.6207 18.4236 17.5033 18.3102 17.3574 18.2292C16.4824 17.7917 15.5993 17.4635 14.7081 17.2448C13.8169 17.026 12.9176 16.9167 12.0102 16.9167C11.1028 16.9167 10.2035 17.026 9.31228 17.2448C8.42108 17.4635 7.53798 17.7917 6.66298 18.2292C6.51714 18.3102 6.39967 18.4236 6.31055 18.5694C6.22143 18.7153 6.17687 18.8773 6.17687 19.0555V19.8333ZM12.0102 12.0555C12.5449 12.0555 13.0027 11.8652 13.3835 11.4844C13.7643 11.1036 13.9546 10.6458 13.9546 10.1111C13.9546 9.57638 13.7643 9.11863 13.3835 8.73784C13.0027 8.35705 12.5449 8.16666 12.0102 8.16666C11.4755 8.16666 11.0177 8.35705 10.6369 8.73784C10.2561 9.11863 10.0658 9.57638 10.0658 10.1111C10.0658 10.6458 10.2561 11.1036 10.6369 11.4844C11.0177 11.8652 11.4755 12.0555 12.0102 12.0555Z" fill="currentColor"/>
</svg>
