<svg width="25" height="28" viewBox="0 0 25 28" fill="none" xmlns="http://www.w3.org/2000/svg">
<path d="M17.5999 16.868L16.1902 15.4583C16.4171 15.0856 16.5872 14.6967 16.7006 14.2917C16.8141 13.8866 16.8708 13.4653 16.8708 13.0278H18.8152C18.8152 13.7407 18.7099 14.4172 18.4992 15.0573C18.2886 15.6973 17.9888 16.3009 17.5999 16.868ZM14.7319 13.9514L12.9819 12.2014V7.19443C12.9819 6.91897 12.8887 6.68806 12.7024 6.50172C12.516 6.31538 12.2851 6.22221 12.0097 6.22221C11.7342 6.22221 11.5033 6.31538 11.3169 6.50172C11.1306 6.68806 11.0374 6.91897 11.0374 7.19443V10.2569L9.09299 8.31249V7.19443C9.09299 6.38424 9.37656 5.69559 9.94368 5.12846C10.5108 4.56133 11.1995 4.27776 12.0097 4.27776C12.8198 4.27776 13.5085 4.56133 14.0756 5.12846C14.6428 5.69559 14.9263 6.38424 14.9263 7.19443V13.0278C14.9263 13.206 14.9061 13.368 14.8656 13.5139C14.8251 13.6597 14.7805 13.8055 14.7319 13.9514ZM11.0374 22.75V19.7604C9.35225 19.5336 7.95873 18.7801 6.85688 17.5C5.75503 16.2199 5.2041 14.7292 5.2041 13.0278H7.14855C7.14855 14.3727 7.6144 15.5191 8.54612 16.467C9.47783 17.4149 10.6323 17.8889 12.0097 17.8889C12.5606 17.8889 13.0832 17.8038 13.5774 17.6337C14.0716 17.4635 14.5212 17.2245 14.9263 16.9167L16.3117 18.3021C15.8418 18.6748 15.3274 18.9907 14.7683 19.25C14.2093 19.5092 13.6138 19.6794 12.9819 19.7604V22.75H11.0374ZM19.593 24.3055L1.7041 6.41665L3.06521 5.05554L20.9541 22.9444L19.593 24.3055Z" fill="currentColor"/>
</svg>
