<svg viewBox="0 0 19 18" fill="none" xmlns="http://www.w3.org/2000/svg">
<path d="M4.75 18C4.09028 18 3.52951 17.7717 3.06771 17.3152C2.6059 16.8587 2.375 16.3043 2.375 15.6522C2.375 15 2.6059 14.4457 3.06771 13.9891C3.52951 13.5326 4.09028 13.3043 4.75 13.3043C4.93472 13.3043 5.10625 13.3239 5.26458 13.363C5.42292 13.4022 5.57465 13.4543 5.71979 13.5196L6.84792 12.1304C6.47847 11.7261 6.22118 11.2696 6.07604 10.7609C5.9309 10.2522 5.89792 9.74348 5.97708 9.23478L4.37396 8.70652C4.14965 9.03261 3.86597 9.29348 3.52292 9.48913C3.17986 9.68478 2.79722 9.78261 2.375 9.78261C1.71528 9.78261 1.15451 9.55435 0.692708 9.09783C0.230903 8.6413 0 8.08696 0 7.43478C0 6.78261 0.230903 6.22826 0.692708 5.77174C1.15451 5.31522 1.71528 5.08696 2.375 5.08696C3.03472 5.08696 3.59549 5.31522 4.05729 5.77174C4.5191 6.22826 4.75 6.78261 4.75 7.43478C4.75 7.46087 4.75 7.48696 4.75 7.51304C4.75 7.53913 4.75 7.56522 4.75 7.5913L6.35313 8.13913C6.61701 7.66957 6.96997 7.27174 7.41198 6.94565C7.85399 6.61957 8.35208 6.41087 8.90625 6.31957V4.61739C8.39167 4.47391 7.96615 4.19674 7.62969 3.78587C7.29323 3.375 7.125 2.89565 7.125 2.34783C7.125 1.69565 7.3559 1.1413 7.81771 0.684782C8.27951 0.22826 8.84028 0 9.5 0C10.1597 0 10.7205 0.22826 11.1823 0.684782C11.6441 1.1413 11.875 1.69565 11.875 2.34783C11.875 2.89565 11.7035 3.375 11.3604 3.78587C11.0174 4.19674 10.5951 4.47391 10.0938 4.61739V6.31957C10.6479 6.41087 11.146 6.61957 11.588 6.94565C12.03 7.27174 12.383 7.66957 12.6469 8.13913L14.25 7.5913C14.25 7.56522 14.25 7.53913 14.25 7.51304C14.25 7.48696 14.25 7.46087 14.25 7.43478C14.25 6.78261 14.4809 6.22826 14.9427 5.77174C15.4045 5.31522 15.9653 5.08696 16.625 5.08696C17.2847 5.08696 17.8455 5.31522 18.3073 5.77174C18.7691 6.22826 19 6.78261 19 7.43478C19 8.08696 18.7691 8.6413 18.3073 9.09783C17.8455 9.55435 17.2847 9.78261 16.625 9.78261C16.2028 9.78261 15.8168 9.68478 15.4672 9.48913C15.1175 9.29348 14.8372 9.03261 14.626 8.70652L13.0229 9.23478C13.1021 9.74348 13.0691 10.2489 12.924 10.7511C12.7788 11.2533 12.5215 11.713 12.1521 12.1304L13.2802 13.5C13.4253 13.4348 13.5771 13.3859 13.7354 13.3533C13.8937 13.3207 14.0653 13.3043 14.25 13.3043C14.9097 13.3043 15.4705 13.5326 15.9323 13.9891C16.3941 14.4457 16.625 15 16.625 15.6522C16.625 16.3043 16.3941 16.8587 15.9323 17.3152C15.4705 17.7717 14.9097 18 14.25 18C13.5903 18 13.0295 17.7717 12.5677 17.3152C12.1059 16.8587 11.875 16.3043 11.875 15.6522C11.875 15.3913 11.9179 15.1402 12.0036 14.8989C12.0894 14.6576 12.2049 14.4391 12.35 14.2435L11.2219 12.8543C10.6809 13.1543 10.1036 13.3043 9.4901 13.3043C8.87656 13.3043 8.29931 13.1543 7.75833 12.8543L6.65 14.2435C6.79514 14.4391 6.91059 14.6576 6.99635 14.8989C7.08212 15.1402 7.125 15.3913 7.125 15.6522C7.125 16.3043 6.8941 16.8587 6.43229 17.3152C5.97049 17.7717 5.40972 18 4.75 18ZM2.375 8.21739C2.59931 8.21739 2.78733 8.14239 2.93906 7.99239C3.0908 7.84239 3.16667 7.65652 3.16667 7.43478C3.16667 7.21304 3.0908 7.02717 2.93906 6.87717C2.78733 6.72717 2.59931 6.65217 2.375 6.65217C2.15069 6.65217 1.96267 6.72717 1.81094 6.87717C1.6592 7.02717 1.58333 7.21304 1.58333 7.43478C1.58333 7.65652 1.6592 7.84239 1.81094 7.99239C1.96267 8.14239 2.15069 8.21739 2.375 8.21739ZM4.75 16.4348C4.97431 16.4348 5.16233 16.3598 5.31406 16.2098C5.4658 16.0598 5.54167 15.8739 5.54167 15.6522C5.54167 15.4304 5.4658 15.2446 5.31406 15.0946C5.16233 14.9446 4.97431 14.8696 4.75 14.8696C4.52569 14.8696 4.33767 14.9446 4.18594 15.0946C4.0342 15.2446 3.95833 15.4304 3.95833 15.6522C3.95833 15.8739 4.0342 16.0598 4.18594 16.2098C4.33767 16.3598 4.52569 16.4348 4.75 16.4348ZM9.5 3.13043C9.72431 3.13043 9.91233 3.05543 10.0641 2.90543C10.2158 2.75543 10.2917 2.56957 10.2917 2.34783C10.2917 2.12609 10.2158 1.94022 10.0641 1.79022C9.91233 1.64022 9.72431 1.56522 9.5 1.56522C9.27569 1.56522 9.08767 1.64022 8.93594 1.79022C8.7842 1.94022 8.70833 2.12609 8.70833 2.34783C8.70833 2.56957 8.7842 2.75543 8.93594 2.90543C9.08767 3.05543 9.27569 3.13043 9.5 3.13043ZM9.5 11.7391C10.0542 11.7391 10.5226 11.55 10.9052 11.1717C11.2878 10.7935 11.4792 10.3304 11.4792 9.78261C11.4792 9.23478 11.2878 8.77174 10.9052 8.39348C10.5226 8.01522 10.0542 7.82609 9.5 7.82609C8.94583 7.82609 8.47743 8.01522 8.09479 8.39348C7.71215 8.77174 7.52083 9.23478 7.52083 9.78261C7.52083 10.3304 7.71215 10.7935 8.09479 11.1717C8.47743 11.55 8.94583 11.7391 9.5 11.7391ZM14.25 16.4348C14.4743 16.4348 14.6623 16.3598 14.8141 16.2098C14.9658 16.0598 15.0417 15.8739 15.0417 15.6522C15.0417 15.4304 14.9658 15.2446 14.8141 15.0946C14.6623 14.9446 14.4743 14.8696 14.25 14.8696C14.0257 14.8696 13.8377 14.9446 13.6859 15.0946C13.5342 15.2446 13.4583 15.4304 13.4583 15.6522C13.4583 15.8739 13.5342 16.0598 13.6859 16.2098C13.8377 16.3598 14.0257 16.4348 14.25 16.4348ZM16.625 8.21739C16.8493 8.21739 17.0373 8.14239 17.1891 7.99239C17.3408 7.84239 17.4167 7.65652 17.4167 7.43478C17.4167 7.21304 17.3408 7.02717 17.1891 6.87717C17.0373 6.72717 16.8493 6.65217 16.625 6.65217C16.4007 6.65217 16.2127 6.72717 16.0609 6.87717C15.9092 7.02717 15.8333 7.21304 15.8333 7.43478C15.8333 7.65652 15.9092 7.84239 16.0609 7.99239C16.2127 8.14239 16.4007 8.21739 16.625 8.21739Z" fill="currentColor"/>
</svg>
