<svg width="25" height="28" viewBox="0 0 25 28" fill="none" xmlns="http://www.w3.org/2000/svg">
<path d="M6.17708 24.6945C5.3669 24.6945 4.67824 24.4109 4.11111 23.8438C3.54398 23.2766 3.26042 22.588 3.26042 21.7778C3.26042 20.9676 3.54398 20.2789 4.11111 19.7118C4.67824 19.1447 5.3669 18.8611 6.17708 18.8611C6.40394 18.8611 6.61458 18.8854 6.80903 18.934C7.00347 18.9827 7.18982 19.0475 7.36806 19.1285L8.75347 17.4028C8.29977 16.9005 7.9838 16.3333 7.80556 15.7014C7.62732 15.0695 7.58681 14.4375 7.68403 13.8056L5.71528 13.1493C5.43982 13.5544 5.09144 13.8785 4.67014 14.1215C4.24884 14.3646 3.77894 14.4861 3.26042 14.4861C2.45023 14.4861 1.76157 14.2026 1.19444 13.6354C0.627315 13.0683 0.34375 12.3796 0.34375 11.5695C0.34375 10.7593 0.627315 10.0706 1.19444 9.50349C1.76157 8.93636 2.45023 8.65279 3.26042 8.65279C4.0706 8.65279 4.75926 8.93636 5.32639 9.50349C5.89352 10.0706 6.17708 10.7593 6.17708 11.5695C6.17708 11.6019 6.17708 11.6343 6.17708 11.6667C6.17708 11.6991 6.17708 11.7315 6.17708 11.7639L8.14583 12.4445C8.46991 11.8611 8.90336 11.3669 9.44618 10.9618C9.98901 10.5567 10.6007 10.2975 11.2812 10.184V8.06946C10.6493 7.89122 10.1267 7.54689 9.71354 7.03647C9.30035 6.52605 9.09375 5.93057 9.09375 5.25001C9.09375 4.43983 9.37731 3.75117 9.94444 3.18404C10.5116 2.61691 11.2002 2.33335 12.0104 2.33335C12.8206 2.33335 13.5093 2.61691 14.0764 3.18404C14.6435 3.75117 14.9271 4.43983 14.9271 5.25001C14.9271 5.93057 14.7164 6.52605 14.2951 7.03647C13.8738 7.54689 13.3553 7.89122 12.7396 8.06946V10.184C13.4201 10.2975 14.0318 10.5567 14.5747 10.9618C15.1175 11.3669 15.5509 11.8611 15.875 12.4445L17.8438 11.7639C17.8438 11.7315 17.8438 11.6991 17.8438 11.6667C17.8438 11.6343 17.8438 11.6019 17.8438 11.5695C17.8438 10.7593 18.1273 10.0706 18.6944 9.50349C19.2616 8.93636 19.9502 8.65279 20.7604 8.65279C21.5706 8.65279 22.2593 8.93636 22.8264 9.50349C23.3935 10.0706 23.6771 10.7593 23.6771 11.5695C23.6771 12.3796 23.3935 13.0683 22.8264 13.6354C22.2593 14.2026 21.5706 14.4861 20.7604 14.4861C20.2419 14.4861 19.7679 14.3646 19.3385 14.1215C18.9091 13.8785 18.5648 13.5544 18.3056 13.1493L16.3368 13.8056C16.434 14.4375 16.3935 15.0654 16.2153 15.6892C16.037 16.3131 15.7211 16.8843 15.2674 17.4028L16.6528 19.1042C16.831 19.0232 17.0174 18.9624 17.2118 18.9219C17.4062 18.8814 17.6169 18.8611 17.8438 18.8611C18.6539 18.8611 19.3426 19.1447 19.9097 19.7118C20.4769 20.2789 20.7604 20.9676 20.7604 21.7778C20.7604 22.588 20.4769 23.2766 19.9097 23.8438C19.3426 24.4109 18.6539 24.6945 17.8438 24.6945C17.0336 24.6945 16.3449 24.4109 15.7778 23.8438C15.2106 23.2766 14.9271 22.588 14.9271 21.7778C14.9271 21.4537 14.9797 21.1418 15.0851 20.842C15.1904 20.5423 15.3322 20.2708 15.5104 20.0278L14.125 18.3021C13.4606 18.6748 12.7517 18.8611 11.9983 18.8611C11.2448 18.8611 10.5359 18.6748 9.87153 18.3021L8.51042 20.0278C8.68866 20.2708 8.83044 20.5423 8.93576 20.842C9.04109 21.1418 9.09375 21.4537 9.09375 21.7778C9.09375 22.588 8.81019 23.2766 8.24306 23.8438C7.67593 24.4109 6.98727 24.6945 6.17708 24.6945ZM3.26042 12.5417C3.53588 12.5417 3.76678 12.4485 3.95312 12.2622C4.13947 12.0758 4.23264 11.8449 4.23264 11.5695C4.23264 11.294 4.13947 11.0631 3.95312 10.8767C3.76678 10.6904 3.53588 10.5972 3.26042 10.5972C2.98495 10.5972 2.75405 10.6904 2.56771 10.8767C2.38137 11.0631 2.28819 11.294 2.28819 11.5695C2.28819 11.8449 2.38137 12.0758 2.56771 12.2622C2.75405 12.4485 2.98495 12.5417 3.26042 12.5417ZM6.17708 22.75C6.45255 22.75 6.68345 22.6568 6.86979 22.4705C7.05613 22.2842 7.14931 22.0533 7.14931 21.7778C7.14931 21.5023 7.05613 21.2714 6.86979 21.0851C6.68345 20.8987 6.45255 20.8056 6.17708 20.8056C5.90162 20.8056 5.67072 20.8987 5.48438 21.0851C5.29803 21.2714 5.20486 21.5023 5.20486 21.7778C5.20486 22.0533 5.29803 22.2842 5.48438 22.4705C5.67072 22.6568 5.90162 22.75 6.17708 22.75ZM12.0104 6.22223C12.2859 6.22223 12.5168 6.12906 12.7031 5.94272C12.8895 5.75638 12.9826 5.52548 12.9826 5.25001C12.9826 4.97455 12.8895 4.74365 12.7031 4.5573C12.5168 4.37096 12.2859 4.27779 12.0104 4.27779C11.735 4.27779 11.5041 4.37096 11.3177 4.5573C11.1314 4.74365 11.0382 4.97455 11.0382 5.25001C11.0382 5.52548 11.1314 5.75638 11.3177 5.94272C11.5041 6.12906 11.735 6.22223 12.0104 6.22223ZM12.0104 16.9167C12.691 16.9167 13.2662 16.6817 13.7361 16.2118C14.206 15.7419 14.441 15.1667 14.441 14.4861C14.441 13.8056 14.206 13.2303 13.7361 12.7604C13.2662 12.2905 12.691 12.0556 12.0104 12.0556C11.3299 12.0556 10.7546 12.2905 10.2847 12.7604C9.81481 13.2303 9.57986 13.8056 9.57986 14.4861C9.57986 15.1667 9.81481 15.7419 10.2847 16.2118C10.7546 16.6817 11.3299 16.9167 12.0104 16.9167ZM17.8438 22.75C18.1192 22.75 18.3501 22.6568 18.5365 22.4705C18.7228 22.2842 18.816 22.0533 18.816 21.7778C18.816 21.5023 18.7228 21.2714 18.5365 21.0851C18.3501 20.8987 18.1192 20.8056 17.8438 20.8056C17.5683 20.8056 17.3374 20.8987 17.151 21.0851C16.9647 21.2714 16.8715 21.5023 16.8715 21.7778C16.8715 22.0533 16.9647 22.2842 17.151 22.4705C17.3374 22.6568 17.5683 22.75 17.8438 22.75ZM20.7604 12.5417C21.0359 12.5417 21.2668 12.4485 21.4531 12.2622C21.6395 12.0758 21.7326 11.8449 21.7326 11.5695C21.7326 11.294 21.6395 11.0631 21.4531 10.8767C21.2668 10.6904 21.0359 10.5972 20.7604 10.5972C20.485 10.5972 20.2541 10.6904 20.0677 10.8767C19.8814 11.0631 19.7882 11.294 19.7882 11.5695C19.7882 11.8449 19.8814 12.0758 20.0677 12.2622C20.2541 12.4485 20.485 12.5417 20.7604 12.5417Z" fill="currentColor"/>
</svg>
