<svg width="25" height="28" viewBox="0 0 25 28" fill="none" xmlns="http://www.w3.org/2000/svg">
<path d="M9.0931 16.9167V11.0833H14.9264V16.9167H9.0931ZM11.0375 14.9722H12.982V13.0278H11.0375V14.9722ZM9.0931 22.75V20.8056H7.14865C6.61393 20.8056 6.15618 20.6152 5.77539 20.2344C5.3946 19.8536 5.20421 19.3958 5.20421 18.8611V16.9167H3.25977V14.9722H5.20421V13.0278H3.25977V11.0833H5.20421V9.13889C5.20421 8.60417 5.3946 8.14641 5.77539 7.76562C6.15618 7.38484 6.61393 7.19444 7.14865 7.19444H9.0931V5.25H11.0375V7.19444H12.982V5.25H14.9264V7.19444H16.8709C17.4056 7.19444 17.8634 7.38484 18.2441 7.76562C18.6249 8.14641 18.8153 8.60417 18.8153 9.13889V11.0833H20.7598V13.0278H18.8153V14.9722H20.7598V16.9167H18.8153V18.8611C18.8153 19.3958 18.6249 19.8536 18.2441 20.2344C17.8634 20.6152 17.4056 20.8056 16.8709 20.8056H14.9264V22.75H12.982V20.8056H11.0375V22.75H9.0931ZM16.8709 18.8611V9.13889H7.14865V18.8611H16.8709Z" fill="currentColor"/>
</svg>
