<svg width="25" height="28" viewBox="0 0 25 28" fill="none" xmlns="http://www.w3.org/2000/svg">
<path d="M9.57975 18.375L16.3853 14L9.57975 9.62501V18.375ZM12.0103 23.7222C10.6654 23.7222 9.40151 23.467 8.21864 22.9566C7.03577 22.4462 6.00684 21.7535 5.13184 20.8785C4.25684 20.0035 3.56413 18.9745 3.05371 17.7917C2.54329 16.6088 2.28809 15.3449 2.28809 14C2.28809 12.6551 2.54329 11.3912 3.05371 10.2083C3.56413 9.02547 4.25684 7.99653 5.13184 7.12153C6.00684 6.24653 7.03577 5.55383 8.21864 5.04341C9.40151 4.53299 10.6654 4.27778 12.0103 4.27778C13.3552 4.27778 14.6191 4.53299 15.802 5.04341C16.9848 5.55383 18.0138 6.24653 18.8888 7.12153C19.7638 7.99653 20.4565 9.02547 20.9669 10.2083C21.4773 11.3912 21.7325 12.6551 21.7325 14C21.7325 15.3449 21.4773 16.6088 20.9669 17.7917C20.4565 18.9745 19.7638 20.0035 18.8888 20.8785C18.0138 21.7535 16.9848 22.4462 15.802 22.9566C14.6191 23.467 13.3552 23.7222 12.0103 23.7222ZM12.0103 21.7778C14.1816 21.7778 16.0207 21.0243 17.5277 19.5174C19.0346 18.0104 19.7881 16.1713 19.7881 14C19.7881 11.8287 19.0346 9.98959 17.5277 8.48265C16.0207 6.9757 14.1816 6.22223 12.0103 6.22223C9.83901 6.22223 7.99989 6.9757 6.49295 8.48265C4.986 9.98959 4.23253 11.8287 4.23253 14C4.23253 16.1713 4.986 18.0104 6.49295 19.5174C7.99989 21.0243 9.83901 21.7778 12.0103 21.7778Z" fill="currentColor"/>
</svg>
