<svg width="20" height="24" viewBox="0 0 20 24" fill="none" xmlns="http://www.w3.org/2000/svg">
<path d="M9.16699 16.1666H10.8337V12.8333H14.167V11.1666H10.8337V7.83331H9.16699V11.1666H5.83366V12.8333H9.16699V16.1666ZM10.0003 20.3333C8.84755 20.3333 7.76421 20.1146 6.75033 19.6771C5.73644 19.2396 4.85449 18.6458 4.10449 17.8958C3.35449 17.1458 2.76074 16.2639 2.32324 15.25C1.88574 14.2361 1.66699 13.1528 1.66699 12C1.66699 10.8472 1.88574 9.76387 2.32324 8.74998C2.76074 7.73609 3.35449 6.85415 4.10449 6.10415C4.85449 5.35414 5.73644 4.76039 6.75033 4.3229C7.76421 3.8854 8.84755 3.66665 10.0003 3.66665C11.1531 3.66665 12.2364 3.8854 13.2503 4.3229C14.2642 4.76039 15.1462 5.35414 15.8962 6.10415C16.6462 6.85415 17.2399 7.73609 17.6774 8.74998C18.1149 9.76387 18.3337 10.8472 18.3337 12C18.3337 13.1528 18.1149 14.2361 17.6774 15.25C17.2399 16.2639 16.6462 17.1458 15.8962 17.8958C15.1462 18.6458 14.2642 19.2396 13.2503 19.6771C12.2364 20.1146 11.1531 20.3333 10.0003 20.3333ZM10.0003 18.6666C11.8614 18.6666 13.4378 18.0208 14.7295 16.7291C16.0212 15.4375 16.667 13.8611 16.667 12C16.667 10.1389 16.0212 8.56248 14.7295 7.27081C13.4378 5.97915 11.8614 5.33331 10.0003 5.33331C8.13921 5.33331 6.56283 5.97915 5.27116 7.27081C3.97949 8.56248 3.33366 10.1389 3.33366 12C3.33366 13.8611 3.97949 15.4375 5.27116 16.7291C6.56283 18.0208 8.13921 18.6666 10.0003 18.6666Z" fill="white"/>
</svg>
