<svg width="16" height="20" viewBox="0 0 16 20" fill="none" xmlns="http://www.w3.org/2000/svg">
<path d="M7.99967 11.3333C7.44412 11.3333 6.9719 11.1389 6.58301 10.75C6.19412 10.3611 5.99967 9.88889 5.99967 9.33333V5.33333C5.99967 4.77778 6.19412 4.30556 6.58301 3.91667C6.9719 3.52778 7.44412 3.33333 7.99967 3.33333C8.55523 3.33333 9.02745 3.52778 9.41634 3.91667C9.80523 4.30556 9.99967 4.77778 9.99967 5.33333V9.33333C9.99967 9.88889 9.80523 10.3611 9.41634 10.75C9.02745 11.1389 8.55523 11.3333 7.99967 11.3333ZM7.33301 16V13.95C6.17745 13.7944 5.2219 13.2778 4.46634 12.4C3.71079 11.5222 3.33301 10.5 3.33301 9.33333H4.66634C4.66634 10.2556 4.99134 11.0417 5.64134 11.6917C6.29134 12.3417 7.07745 12.6667 7.99967 12.6667C8.9219 12.6667 9.70801 12.3417 10.358 11.6917C11.008 11.0417 11.333 10.2556 11.333 9.33333H12.6663C12.6663 10.5 12.2886 11.5222 11.533 12.4C10.7775 13.2778 9.8219 13.7944 8.66634 13.95V16H7.33301ZM7.99967 10C8.18856 10 8.3469 9.93611 8.47467 9.80833C8.60245 9.68056 8.66634 9.52222 8.66634 9.33333V5.33333C8.66634 5.14444 8.60245 4.98611 8.47467 4.85833C8.3469 4.73055 8.18856 4.66667 7.99967 4.66667C7.81079 4.66667 7.65245 4.73055 7.52467 4.85833C7.3969 4.98611 7.33301 5.14444 7.33301 5.33333V9.33333C7.33301 9.52222 7.3969 9.68056 7.52467 9.80833C7.65245 9.93611 7.81079 10 7.99967 10Z" fill="white"/>
</svg>
