<svg width="25" height="28" viewBox="0 0 25 28" fill="none" xmlns="http://www.w3.org/2000/svg">
<path d="M12.0098 22.75C9.77365 22.75 7.82516 22.0087 6.16428 20.526C4.5034 19.0434 3.55143 17.1921 3.30838 14.9722H5.30143C5.52828 16.6574 6.27771 18.0509 7.5497 19.1528C8.82169 20.2546 10.3084 20.8056 12.0098 20.8056C13.9056 20.8056 15.5138 20.1453 16.8344 18.8247C18.155 17.5041 18.8153 15.8958 18.8153 14C18.8153 12.1042 18.155 10.4959 16.8344 9.17535C15.5138 7.85474 13.9056 7.19444 12.0098 7.19444C10.8917 7.19444 9.84657 7.4537 8.87435 7.97222C7.90213 8.49074 7.08384 9.2037 6.41949 10.1111H9.0931V12.0556H3.25977V6.22222H5.20421V8.50694C6.0306 7.46991 7.03928 6.66782 8.23025 6.10069C9.42122 5.53356 10.6811 5.25 12.0098 5.25C13.225 5.25 14.3634 5.4809 15.4247 5.94271C16.486 6.40451 17.4096 7.02836 18.1955 7.81424C18.9814 8.60012 19.6053 9.52373 20.0671 10.5851C20.5289 11.6464 20.7598 12.7847 20.7598 14C20.7598 15.2153 20.5289 16.3536 20.0671 17.4149C19.6053 18.4763 18.9814 19.3999 18.1955 20.1858C17.4096 20.9716 16.486 21.5955 15.4247 22.0573C14.3634 22.5191 13.225 22.75 12.0098 22.75ZM14.732 18.0833L11.0375 14.3889V9.13889H12.982V13.6111L16.0931 16.7222L14.732 18.0833Z" fill="currentColor"/>
</svg>
