<svg width="25" height="28" viewBox="0 0 25 28" fill="none" xmlns="http://www.w3.org/2000/svg">
<path d="M19.3987 22.75L13.2737 16.625C12.7875 17.0139 12.2285 17.3218 11.5966 17.5486C10.9646 17.7755 10.2922 17.8889 9.57921 17.8889C7.81301 17.8889 6.31821 17.2772 5.09484 16.0538C3.87146 14.8304 3.25977 13.3356 3.25977 11.5694C3.25977 9.80324 3.87146 8.30845 5.09484 7.08507C6.31821 5.86169 7.81301 5.25 9.57921 5.25C11.3454 5.25 12.8402 5.86169 14.0636 7.08507C15.287 8.30845 15.8987 9.80324 15.8987 11.5694C15.8987 12.2824 15.7852 12.9549 15.5584 13.5868C15.3315 14.2188 15.0237 14.7778 14.6348 15.2639L20.7598 21.3889L19.3987 22.75ZM9.57921 15.9444C10.7945 15.9444 11.8275 15.5191 12.6782 14.6684C13.5289 13.8177 13.9542 12.7847 13.9542 11.5694C13.9542 10.3542 13.5289 9.32118 12.6782 8.47049C11.8275 7.61979 10.7945 7.19444 9.57921 7.19444C8.36393 7.19444 7.33095 7.61979 6.48025 8.47049C5.62956 9.32118 5.20421 10.3542 5.20421 11.5694C5.20421 12.7847 5.62956 13.8177 6.48025 14.6684C7.33095 15.5191 8.36393 15.9444 9.57921 15.9444Z" fill="currentColor"/>
</svg>
