<svg width="25" height="28" viewBox="0 0 25 28" fill="none" xmlns="http://www.w3.org/2000/svg">
<path d="M9.33648 23.7222L8.94759 20.6111C8.73694 20.5301 8.53845 20.4329 8.35211 20.3195C8.16576 20.206 7.98347 20.0845 7.80523 19.9549L4.91287 21.1701L2.23926 16.5521L4.74273 14.6563C4.72653 14.5428 4.71842 14.4335 4.71842 14.3281C4.71842 14.2228 4.71842 14.1134 4.71842 14C4.71842 13.8866 4.71842 13.7772 4.71842 13.6719C4.71842 13.5666 4.72653 13.4572 4.74273 13.3438L2.23926 11.4479L4.91287 6.82987L7.80523 8.04515C7.98347 7.91552 8.16981 7.79399 8.36426 7.68056C8.5587 7.56714 8.75315 7.46991 8.94759 7.3889L9.33648 4.27778H14.6837L15.0726 7.3889C15.2832 7.46991 15.4817 7.56714 15.6681 7.68056C15.8544 7.79399 16.0367 7.91552 16.215 8.04515L19.1073 6.82987L21.7809 11.4479L19.2775 13.3438C19.2937 13.4572 19.3018 13.5666 19.3018 13.6719C19.3018 13.7772 19.3018 13.8866 19.3018 14C19.3018 14.1134 19.3018 14.2228 19.3018 14.3281C19.3018 14.4335 19.2856 14.5428 19.2531 14.6563L21.7566 16.5521L19.083 21.1701L16.215 19.9549C16.0367 20.0845 15.8504 20.206 15.6559 20.3195C15.4615 20.4329 15.267 20.5301 15.0726 20.6111L14.6837 23.7222H9.33648ZM11.0379 21.7778H12.958L13.2983 19.2014C13.8006 19.0718 14.2665 18.8814 14.6959 18.6302C15.1253 18.3791 15.5182 18.0752 15.8747 17.7188L18.2809 18.7153L19.2288 17.0625L17.1386 15.4826C17.2196 15.2558 17.2763 15.0168 17.3087 14.7656C17.3411 14.5145 17.3573 14.2593 17.3573 14C17.3573 13.7407 17.3411 13.4855 17.3087 13.2344C17.2763 12.9832 17.2196 12.7442 17.1386 12.5174L19.2288 10.9375L18.2809 9.28473L15.8747 10.3056C15.5182 9.93288 15.1253 9.62096 14.6959 9.3698C14.2665 9.11864 13.8006 8.92825 13.2983 8.79862L12.9823 6.22223H11.0622L10.7219 8.79862C10.2196 8.92825 9.75373 9.11864 9.32433 9.3698C8.89493 9.62096 8.50199 9.92478 8.14551 10.2813L5.73926 9.28473L4.79134 10.9375L6.88162 12.4931C6.8006 12.7361 6.74389 12.9792 6.71148 13.2222C6.67907 13.4653 6.66287 13.7245 6.66287 14C6.66287 14.2593 6.67907 14.5104 6.71148 14.7535C6.74389 14.9965 6.8006 15.2396 6.88162 15.4826L4.79134 17.0625L5.73926 18.7153L8.14551 17.6945C8.50199 18.0671 8.89493 18.3791 9.32433 18.6302C9.75373 18.8814 10.2196 19.0718 10.7219 19.2014L11.0379 21.7778ZM12.0587 17.4028C12.9985 17.4028 13.8006 17.0706 14.465 16.4063C15.1293 15.7419 15.4615 14.9398 15.4615 14C15.4615 13.0602 15.1293 12.2581 14.465 11.5938C13.8006 10.9294 12.9985 10.5972 12.0587 10.5972C11.1027 10.5972 10.2965 10.9294 9.6403 11.5938C8.98405 12.2581 8.65593 13.0602 8.65593 14C8.65593 14.9398 8.98405 15.7419 9.6403 16.4063C10.2965 17.0706 11.1027 17.4028 12.0587 17.4028Z" fill="currentColor"/>
</svg>
