<svg width="20" height="24" viewBox="0 0 20 24" fill="none" xmlns="http://www.w3.org/2000/svg">
<path d="M14.167 20.3333C13.4725 20.3333 12.8823 20.0903 12.3962 19.6041C11.91 19.118 11.667 18.5278 11.667 17.8333C11.667 17.75 11.6878 17.5555 11.7295 17.25L5.87533 13.8333C5.6531 14.0416 5.39616 14.2048 5.10449 14.3229C4.81283 14.441 4.50033 14.5 4.16699 14.5C3.47255 14.5 2.88227 14.2569 2.39616 13.7708C1.91005 13.2847 1.66699 12.6944 1.66699 12C1.66699 11.3055 1.91005 10.7153 2.39616 10.2291C2.88227 9.74303 3.47255 9.49998 4.16699 9.49998C4.50033 9.49998 4.81283 9.55901 5.10449 9.67706C5.39616 9.79512 5.6531 9.95831 5.87533 10.1666L11.7295 6.74998C11.7017 6.65276 11.6844 6.55901 11.6774 6.46873C11.6705 6.37845 11.667 6.27776 11.667 6.16665C11.667 5.4722 11.91 4.88192 12.3962 4.39581C12.8823 3.9097 13.4725 3.66665 14.167 3.66665C14.8614 3.66665 15.4517 3.9097 15.9378 4.39581C16.4239 4.88192 16.667 5.4722 16.667 6.16665C16.667 6.86109 16.4239 7.45137 15.9378 7.93748C15.4517 8.42359 14.8614 8.66665 14.167 8.66665C13.8337 8.66665 13.5212 8.60762 13.2295 8.48956C12.9378 8.37151 12.6809 8.20831 12.4587 7.99998L6.60449 11.4166C6.63227 11.5139 6.64963 11.6076 6.65658 11.6979C6.66352 11.7882 6.66699 11.8889 6.66699 12C6.66699 12.1111 6.66352 12.2118 6.65658 12.3021C6.64963 12.3923 6.63227 12.4861 6.60449 12.5833L12.4587 16C12.6809 15.7916 12.9378 15.6285 13.2295 15.5104C13.5212 15.3923 13.8337 15.3333 14.167 15.3333C14.8614 15.3333 15.4517 15.5764 15.9378 16.0625C16.4239 16.5486 16.667 17.1389 16.667 17.8333C16.667 18.5278 16.4239 19.118 15.9378 19.6041C15.4517 20.0903 14.8614 20.3333 14.167 20.3333ZM14.167 18.6666C14.4031 18.6666 14.601 18.5868 14.7607 18.4271C14.9205 18.2673 15.0003 18.0694 15.0003 17.8333C15.0003 17.5972 14.9205 17.3993 14.7607 17.2396C14.601 17.0798 14.4031 17 14.167 17C13.9309 17 13.733 17.0798 13.5732 17.2396C13.4135 17.3993 13.3337 17.5972 13.3337 17.8333C13.3337 18.0694 13.4135 18.2673 13.5732 18.4271C13.733 18.5868 13.9309 18.6666 14.167 18.6666ZM4.16699 12.8333C4.4031 12.8333 4.60102 12.7535 4.76074 12.5937C4.92046 12.434 5.00033 12.2361 5.00033 12C5.00033 11.7639 4.92046 11.566 4.76074 11.4062C4.60102 11.2465 4.4031 11.1666 4.16699 11.1666C3.93088 11.1666 3.73296 11.2465 3.57324 11.4062C3.41352 11.566 3.33366 11.7639 3.33366 12C3.33366 12.2361 3.41352 12.434 3.57324 12.5937C3.73296 12.7535 3.93088 12.8333 4.16699 12.8333ZM14.167 6.99998C14.4031 6.99998 14.601 6.92012 14.7607 6.7604C14.9205 6.60067 15.0003 6.40276 15.0003 6.16665C15.0003 5.93053 14.9205 5.73262 14.7607 5.57289C14.601 5.41317 14.4031 5.33331 14.167 5.33331C13.9309 5.33331 13.733 5.41317 13.5732 5.57289C13.4135 5.73262 13.3337 5.93053 13.3337 6.16665C13.3337 6.40276 13.4135 6.60067 13.5732 6.7604C13.733 6.92012 13.9309 6.99998 14.167 6.99998Z" fill="currentColor"/>
</svg>
