<svg width="30" height="36" viewBox="0 0 30 36" fill="none" xmlns="http://www.w3.org/2000/svg">
<path d="M5 28C4.3125 28 3.72396 27.7552 3.23438 27.2656C2.74479 26.776 2.5 26.1875 2.5 25.5V10.5C2.5 9.8125 2.74479 9.22396 3.23438 8.73438C3.72396 8.24479 4.3125 8 5 8H25C25.6875 8 26.276 8.24479 26.7656 8.73438C27.2552 9.22396 27.5 9.8125 27.5 10.5V25.5C27.5 26.1875 27.2552 26.776 26.7656 27.2656C26.276 27.7552 25.6875 28 25 28H5ZM5 25.5H25V13H5V25.5ZM9.375 24.25L7.625 22.5L10.8438 19.25L7.59375 16L9.375 14.25L14.375 19.25L9.375 24.25ZM15 24.25V21.75H22.5V24.25H15Z" fill="currentColor"/>
</svg>
