<svg viewBox="0 0 16 20" fill="none" xmlns="http://www.w3.org/2000/svg">
<path d="M7.99967 13.3334C8.18856 13.3334 8.3469 13.2695 8.47467 13.1417C8.60245 13.0139 8.66634 12.8556 8.66634 12.6667C8.66634 12.4778 8.60245 12.3195 8.47467 12.1917C8.3469 12.0639 8.18856 12 7.99967 12C7.81079 12 7.65245 12.0639 7.52467 12.1917C7.3969 12.3195 7.33301 12.4778 7.33301 12.6667C7.33301 12.8556 7.3969 13.0139 7.52467 13.1417C7.65245 13.2695 7.81079 13.3334 7.99967 13.3334ZM7.33301 10.6667H8.66634V6.66669H7.33301V10.6667ZM7.99967 16.6667C7.07745 16.6667 6.21079 16.4917 5.39967 16.1417C4.58856 15.7917 3.88301 15.3167 3.28301 14.7167C2.68301 14.1167 2.20801 13.4111 1.85801 12.6C1.50801 11.7889 1.33301 10.9222 1.33301 10C1.33301 9.0778 1.50801 8.21113 1.85801 7.40002C2.20801 6.58891 2.68301 5.88335 3.28301 5.28335C3.88301 4.68335 4.58856 4.20835 5.39967 3.85835C6.21079 3.50835 7.07745 3.33335 7.99967 3.33335C8.9219 3.33335 9.78856 3.50835 10.5997 3.85835C11.4108 4.20835 12.1163 4.68335 12.7163 5.28335C13.3163 5.88335 13.7913 6.58891 14.1413 7.40002C14.4913 8.21113 14.6663 9.0778 14.6663 10C14.6663 10.9222 14.4913 11.7889 14.1413 12.6C13.7913 13.4111 13.3163 14.1167 12.7163 14.7167C12.1163 15.3167 11.4108 15.7917 10.5997 16.1417C9.78856 16.4917 8.9219 16.6667 7.99967 16.6667ZM7.99967 15.3334C9.48856 15.3334 10.7497 14.8167 11.783 13.7834C12.8163 12.75 13.333 11.4889 13.333 10C13.333 8.51113 12.8163 7.25002 11.783 6.21669C10.7497 5.18335 9.48856 4.66669 7.99967 4.66669C6.51079 4.66669 5.24967 5.18335 4.21634 6.21669C3.18301 7.25002 2.66634 8.51113 2.66634 10C2.66634 11.4889 3.18301 12.75 4.21634 13.7834C5.24967 14.8167 6.51079 15.3334 7.99967 15.3334Z" fill="currentColor"/>
</svg>
